# xmcd
#
# Track frame offsets:
#	150
#	1217
#	3325
#	7122
#	23035
#	26275
#	46100
#	51042
#	65545
#	69700
#	85670
#	89872
#	105430
#	107292
#	126385
#	131995
#	146447
#	150575
#	167132
#	172312
#	186775
#	189745
#	206247
#	208935
#	224735
#	228877
#	257845
#
# Disc length: 4376 seconds
#
# Revision: 0
# Processed by: cddbd v1.5.2PL0 Copyright (c) Steve Scherf et al.
# Submitted via: EasyCDDAExtractor 12.0.1.1
#
DISCID=8411161b
DTITLE=Roxie Dean - Everyday Girl
DYEAR=2003
DGENRE=Country
TTITLE0=Intro By Roxie
TTITLE1=Roxie Talks About Her Album
TTITLE2=Roxie Talks About "Everyday Girl"
TTITLE3=Everyday Girl
TTITLE4=Roxie Talks About "Perfume"
TTITLE5=Perfume
TTITLE6=Roxie Talks About "A Woman Might"
TTITLE7=A Woman Might
TTITLE8=Roxie Talks About "Surprise Me"
TTITLE9=Surprise Me
TTITLE10=Roxie Talks About "What I'm Sayin'"
TTITLE11=What I'm Sayin'
TTITLE12=Roxie Talks About "Hush"
TTITLE13=Hush
TTITLE14=Roxie Talks About "Do I Still Do It For You?"
TTITLE15=Do I Still Do It For You?
TTITLE16=Roxie Talks About "What Keeps Me Going"
TTITLE17=What Keeps Me Going
TTITLE18=Roxie Talks About "Women Know Women"
TTITLE19=Women Know Women
TTITLE20=Roxie Talks About "Sand Castles"
TTITLE21=Sand Castles
TTITLE22=Roxie Talks About "Wrong Side Of Town"
TTITLE23=Wrong Side Of Town
TTITLE24=Roxie Talks About "Remind Me"
TTITLE25=Remind Me
TTITLE26=Data
EXTD=
EXTT0=
EXTT1=
EXTT2=
EXTT3=
EXTT4=
EXTT5=
EXTT6=
EXTT7=
EXTT8=
EXTT9=
EXTT10=
EXTT11=
EXTT12=
EXTT13=
EXTT14=
EXTT15=
EXTT16=
EXTT17=
EXTT18=
EXTT19=
EXTT20=
EXTT21=
EXTT22=
EXTT23=
EXTT24=
EXTT25=
EXTT26=
PLAYORDER=
